#define both_width 16
#define both_height 16
static unsigned char both_bits[] = {
   0xff, 0xff, 0xff, 0xff, 0xff, 0xff, 0xff, 0xff, 0xff, 0xff, 0x00, 0x00,
   0xfe, 0x7f, 0x82, 0x41, 0xba, 0x5d, 0xba, 0x5d, 0xba, 0x5d, 0xba, 0x5d,
   0x82, 0x41, 0xfe, 0x7f, 0x00, 0x00, 0xff, 0xff};
