#define learrow_width 16
#define learrow_height 16
static char learrow_bits[] = {
   0x00, 0x00, 0x00, 0x00, 0x80, 0x01, 0xc0, 0x01, 0xe0, 0x01, 0xf0, 0x01,
   0xf8, 0x7f, 0xfc, 0x7f, 0xfc, 0x7f, 0xf8, 0x7f, 0xf0, 0x01, 0xe0, 0x01,
   0xc0, 0x01, 0x80, 0x01, 0x00, 0x00, 0x00, 0x00};
