#define hdrug_width 32
#define hdrug_height 32
static char hdrug_bits[] = {
   0x00, 0x00, 0x00, 0x00, 0x00, 0x00, 0x00, 0x00, 0x00, 0x00, 0x00, 0x02,
   0x00, 0x00, 0x00, 0x05, 0x00, 0x00, 0x00, 0x09, 0x00, 0x00, 0x00, 0x12,
   0x00, 0x00, 0x0c, 0x25, 0x00, 0x00, 0x94, 0x1a, 0x00, 0x00, 0x68, 0x01,
   0x00, 0x00, 0xc8, 0x00, 0x00, 0x00, 0x94, 0x00, 0x00, 0x00, 0x22, 0x01,
   0x00, 0x00, 0xc5, 0x02, 0x00, 0x80, 0x20, 0x03, 0x00, 0x40, 0x11, 0x00,
   0x00, 0x20, 0x08, 0x00, 0x00, 0x50, 0x04, 0x00, 0x00, 0x08, 0x02, 0x00,
   0x00, 0x14, 0x01, 0x00, 0x00, 0x82, 0x00, 0x00, 0x00, 0x45, 0x00, 0x00,
   0x00, 0x2b, 0x00, 0x00, 0x00, 0x15, 0x00, 0x00, 0x80, 0x0e, 0x00, 0x00,
   0x80, 0x01, 0x00, 0x00, 0x40, 0x00, 0x00, 0x00, 0x20, 0x00, 0x00, 0x00,
   0x10, 0x00, 0x00, 0x00, 0x08, 0x00, 0x00, 0x00, 0x04, 0x00, 0x00, 0x00,
   0x02, 0x00, 0x00, 0x00, 0x00, 0x00, 0x00, 0x00};
