#define noname_width 100
#define noname_height 75
static char noname_bits[] = {
 0xbf,0xf7,0xbb,0xff,0xff,0xff,0xff,0xff,0xff,0xff,0xad,0xbf,0x05,0x6a,0xbd,
 0xee,0xad,0xde,0xd6,0x5a,0x6b,0xdb,0x6e,0x7b,0xeb,0x00,0xdb,0xd5,0x5d,0xf7,
 0xf7,0xff,0xef,0xff,0xff,0xfb,0xad,0xbf,0x00,0x24,0x24,0xa2,0xfc,0x7e,0x6d,
 0xfb,0xda,0xb6,0x7e,0xb7,0xed,0x00,0x00,0x00,0x00,0xda,0xbf,0xbf,0xdf,0xff,
 0xff,0xd7,0xad,0xb7,0x00,0x00,0x00,0x00,0xf4,0xee,0xf7,0x7f,0xbf,0x6d,0xff,
 0x6b,0x7d,0x00,0x00,0x00,0x00,0xdc,0x7b,0xfd,0xff,0xfd,0xff,0xdd,0xde,0xef,
 0x00,0x00,0x00,0x00,0xf4,0xfe,0xff,0xff,0xff,0xb6,0xf7,0x2b,0x7b,0x00,0x00,
 0x00,0x00,0xde,0xaf,0xfb,0xff,0xff,0xff,0x5e,0xb5,0xef,0x00,0x00,0x00,0x00,
 0x74,0x7d,0xff,0xff,0xbf,0xdb,0xff,0x5b,0x5b,0x00,0x00,0x00,0x00,0xdc,0xff,
 0xff,0xff,0xfb,0x7e,0xdb,0xd6,0xfd,0x00,0x00,0x00,0x00,0xf4,0xb6,0xfd,0xff,
 0xff,0xdf,0xff,0x35,0x5f,0x00,0x00,0x00,0x00,0xda,0x7f,0xff,0xff,0xff,0xfd,
 0xb6,0xab,0x75,0x00,0x00,0x00,0x00,0xf4,0xda,0xff,0xff,0xdf,0xaf,0xef,0x5d,
 0xdf,0x00,0x00,0x00,0x00,0x5c,0xff,0xff,0xff,0xff,0xfe,0xbe,0xaa,0x75,0x00,
 0x00,0x00,0x00,0xec,0xaf,0xff,0xf7,0xff,0xb7,0xeb,0x57,0xbf,0x00,0x00,0x00,
 0x00,0xba,0xfa,0x6f,0xff,0xff,0xfb,0xbf,0xaa,0x6a,0x00,0x00,0x00,0x00,0xdc,
 0xdf,0xdf,0xd5,0xff,0x6f,0xed,0x5b,0xdf,0x00,0x00,0x04,0x00,0x74,0xfb,0x77,
 0xff,0xfe,0xfb,0xb7,0xaa,0x75,0x00,0x00,0x00,0x00,0xd8,0xbe,0xde,0xd5,0xf7,
 0x5f,0xfd,0xab,0xbe,0x00,0x00,0x00,0x00,0xee,0xeb,0x7b,0xbb,0xfa,0xfd,0x57,
 0x55,0x6b,0x00,0x00,0x00,0x00,0xb4,0xbe,0xae,0x6d,0xdf,0xab,0xfa,0x5b,0xb7,
 0x00,0x00,0x00,0x00,0xdc,0xed,0xfb,0xb6,0x7b,0xff,0xaf,0xaa,0x6e,0x00,0x00,
 0x00,0x00,0x68,0x7b,0xbe,0xff,0xff,0xaf,0xda,0xab,0xb5,0x00,0x00,0x00,0x00,
 0xde,0xad,0xfb,0xff,0xbf,0xfb,0x77,0x55,0x6f,0x00,0x00,0x00,0x00,0x68,0xff,
 0xfe,0xff,0x7f,0x5f,0xbd,0xab,0xda,0x00,0x00,0x00,0x00,0xdc,0xaa,0xfb,0xef,
 0xff,0xf5,0xd5,0xaa,0xbb,0x00,0x00,0x00,0x00,0x6a,0xff,0xfd,0xff,0x5b,0xbf,
 0xfe,0x55,0x56,0x00,0x00,0x00,0x00,0xdc,0xaa,0xda,0xd7,0x7d,0xd7,0xab,0x56,
 0x7b,0x00,0x00,0x00,0x00,0x68,0xff,0xfd,0xbe,0xdf,0x7a,0xdd,0xab,0xae,0x00,
 0x00,0x00,0x00,0xb6,0xd5,0xfb,0xd7,0x6f,0xd7,0x6b,0x55,0x5b,0x00,0x00,0x00,
 0x00,0xec,0xbe,0xb6,0xff,0xff,0x7d,0xdd,0xaa,0xed,0x00,0x00,0x00,0x00,0xb4,
 0xf5,0xfb,0xff,0x5a,0xd7,0xbb,0x55,0x5b,0x00,0x00,0x00,0x00,0x6c,0xaf,0xfe,
 0xfd,0xff,0x6d,0x6d,0xab,0xb6,0x00,0x00,0x00,0x00,0xb4,0x7d,0xeb,0x7f,0x55,
 0xdb,0xb6,0x95,0x6d,0x00,0x00,0x00,0x00,0x6c,0xab,0xbd,0xfd,0xff,0xb6,0x6d,
 0x6b,0xb6,0x00,0x00,0x00,0x00,0xb4,0x7d,0xeb,0xff,0xb7,0xdd,0xb6,0x95,0xad,
 0x00,0x00,0x00,0x00,0x6c,0xd7,0x7a,0xff,0x7f,0x6b,0xdb,0x55,0x6b,0x00,0x00,
 0x00,0x00,0xb4,0xbd,0xf7,0xb7,0xed,0xde,0xb6,0xaa,0xae,0x00,0x00,0x00,0x00,
 0x6c,0x6b,0xad,0xff,0x7f,0x6b,0xdb,0x56,0x75,0x00,0x00,0x00,0x00,0xd4,0xae,
 0xf5,0xff,0xda,0xb6,0x6d,0x95,0xab,0x00,0x00,0x00,0x00,0x74,0x7b,0x5b,0xb7,
 0xff,0xdb,0xb6,0x55,0x6d,0x00,0x00,0x00,0x00,0xac,0xad,0xf6,0xff,0x7e,0xad,
 0x6d,0xab,0x56,0x00,0x00,0x00,0x00,0xd8,0x76,0x9b,0xfd,0xff,0xeb,0xb6,0x55,
 0xed,0x00,0x00,0x00,0x00,0xb6,0xad,0xf5,0xff,0x7f,0x57,0x55,0x55,0x9b,0x00,
 0x00,0x00,0x00,0xd8,0xf6,0x9a,0xfd,0xff,0xdb,0xee,0x56,0x6d,0x00,0x00,0x00,
 0x00,0xb4,0xad,0x6d,0xff,0xdf,0xaa,0x5a,0x95,0x5a,0x00,0x00,0x00,0x00,0xac,
 0xb6,0xb6,0xff,0xff,0xb5,0x55,0x6b,0xad,0x00,0x00,0x00,0x00,0x74,0x5b,0xd5,
 0xff,0xbf,0x6e,0x7b,0xad,0x5b,0x00,0x00,0x00,0x40,0xac,0xed,0xb6,0xfa,0x7f,
 0x5b,0x55,0x55,0xea,0x00,0x00,0x00,0x10,0x54,0x5b,0xab,0xff,0xff,0xb6,0xad,
 0xaa,0x55,0x00,0x00,0x00,0xa2,0xb8,0xed,0xda,0xff,0x7f,0xdb,0x56,0xd5,0xaa,
 0x00,0x00,0x80,0x40,0x56,0xb5,0xd6,0xfd,0xef,0xae,0xbd,0x5a,0x55,0x00,0x00,
 0x80,0x22,0xe8,0x5e,0xab,0xff,0xff,0xdb,0x56,0xab,0xb6,0x00,0x00,0x42,0xd5,
 0x56,0xb5,0xda,0xff,0xff,0xb7,0xb5,0x6a,0x55,0x00,0x40,0x20,0xaa,0xb8,0x6d,
 0xb5,0xff,0xd7,0x5a,0xad,0xb5,0xed,0x00,0x82,0xd0,0xaa,0x56,0x5b,0xcf,0xff,
 0xef,0xb7,0x5b,0xad,0x56,0x09,0x51,0x2a,0x55,0xa9,0xad,0xb7,0xff,0xbf,0x55,
 0x65,0xb5,0xed,0x06,0x56,0x95,0x5a,0xdd,0x6a,0xd5,0xff,0x77,0xbb,0xae,0x6a,
 0x5b,0x09,0xaa,0xaa,0xaa,0x6a,0xdd,0xf6,0x77,0xaf,0x6d,0xb3,0xdd,0xd6,0x06,
 0x55,0x55,0x6a,0x55,0xbd,0xad,0xff,0xbb,0xd5,0x4e,0xb5,0xbd,0x0d,0xad,0x95,
 0x5a,0xb5,0xd6,0x6e,0xdd,0xee,0x6a,0x75,0xd5,0x6a,0x0b,0x5a,0x55,0x65,0xad,
 0x7d,0xdf,0xef,0xdb,0xd6,0x96,0x6e,0xd7,0x06,0xb6,0xa5,0xba,0x54,0xf5,0xf7,
 0xff,0xee,0xba,0xad,0x55,0x7d,0x0b,0x6d,0x2b,0x55,0xad,0xff,0x5e,0xaf,0x5b,
 0xad,0xb6,0xfa,0xd6,0x06,0xaa,0xd5,0x6a,0xd5,0xaa,0xf7,0xfb,0xf5,0xd6,0xba,
 0x96,0xbd,0x0d,0x6d,0xb5,0xad,0xaa,0xfd,0x7e,0x6f,0x9b,0xba,0x56,0x6d,0xdb,
 0x07,0x55,0xad,0x56,0x6d,0xab,0xf5,0xdd,0xad,0x5d,0xd5,0x5a,0x7d,0x0d,0xb6,
 0xb5,0xb5,0xda,0xf6,0xde,0x7a,0x6f,0xeb,0xaa,0x6d,0xab,0x07,0x55,0xad,0xae,
 0x64,0xaf,0xf3,0xf7,0x5b,0x5d,0x6d,0xdb,0xfd,0x0d,0xaa,0xb5,0x55,0xbd,0xdd,
 0xde,0xda,0xf6,0x7b,0xab,0x6e,0xab,0x07,0xad,0xae,0xaa,0xd2,0xea,0x7b,0x6f,
 0xaf,0xae,0xdd,0xb5,0x7e,0x0d,0x5a,0xb5,0x57,0x6e,0x5b,0xed,0xf5,0x7b,0xfb,
 0xb6,0x6e,0xb5,0x07,0xad,0x5d,0x55,0xb1,0xed,0xaf,0x5a,0xaf,0x56,0xdb,0xdb,
 0x7e,0x0d,0xb2,0xaa,0xaa,0x6e,0xbf,0x5a,0xeb,0xda,0xdd,0xb6,0xaa,0xd5,0x0e};
