#define noname_width 100
#define noname_height 75
static char noname_bits[] = {
 0x05,0x00,0x00,0x00,0x00,0xf0,0xff,0xff,0x7f,0x00,0xa4,0x02,0x00,0x0a,0x00,
 0x00,0x00,0x00,0xfc,0xff,0xff,0xff,0x51,0xab,0x02,0x00,0x05,0x00,0x00,0x00,
 0x00,0xfe,0xff,0xff,0xff,0x54,0x00,0x15,0x00,0x14,0x00,0x00,0x00,0x00,0xff,
 0xff,0xff,0xff,0x03,0x00,0x02,0x00,0x05,0x00,0x00,0x00,0x80,0xff,0xff,0xff,
 0xff,0x01,0x02,0x09,0x00,0x0a,0x00,0x00,0x00,0x00,0xff,0xff,0xff,0xff,0x07,
 0x00,0x05,0x00,0x45,0x00,0x00,0x00,0x80,0xff,0xff,0xfb,0xff,0x03,0x00,0x11,
 0x00,0x0a,0x10,0x00,0x00,0x80,0xff,0x5d,0x7d,0xff,0x8f,0x00,0x0a,0x00,0x02,
 0x02,0x00,0x00,0xe0,0xff,0xa5,0xea,0xff,0x0b,0x40,0x23,0x00,0x2a,0x00,0x00,
 0x00,0xe0,0xbf,0x12,0xf5,0xff,0x1f,0x04,0x09,0x00,0x05,0x00,0x00,0x00,0xb0,
 0x57,0x48,0xda,0xff,0x1f,0x00,0x05,0x00,0x0a,0x00,0x02,0x00,0xe0,0x2f,0x82,
 0xd4,0xfe,0x3f,0x80,0x12,0x00,0x45,0x22,0x00,0x00,0xe0,0x81,0x28,0xe9,0xff,
 0x9f,0x00,0x01,0x01,0x0a,0x00,0x20,0x00,0xe8,0x2b,0x42,0x54,0xff,0x7f,0x08,
 0x25,0x00,0x05,0x00,0x00,0x00,0xd0,0x00,0x88,0xd2,0xf7,0x3f,0x42,0x11,0x00,
 0x4a,0x00,0x00,0x00,0xd0,0xaa,0x22,0xa8,0xfe,0xff,0x00,0x05,0x00,0x05,0x22,
 0x00,0x02,0x78,0x00,0x48,0xd5,0xff,0xff,0x84,0x11,0x02,0x0a,0x00,0x04,0x00,
 0x50,0x48,0x02,0x52,0xf5,0xff,0x01,0x02,0x00,0x05,0x00,0x00,0x00,0x30,0x01,
 0xa8,0xa4,0xfe,0xff,0x40,0x11,0x00,0x45,0x04,0x00,0x00,0x78,0xa4,0x02,0x51,
 0xf5,0xff,0x01,0x03,0x04,0x0a,0x20,0x00,0x40,0x30,0x10,0x28,0xaa,0xfe,0xff,
 0x81,0x11,0x02,0x05,0x00,0x20,0x00,0x70,0x05,0x82,0xf6,0xf7,0xff,0x13,0x01,
 0x00,0x8a,0x00,0x00,0x00,0xb8,0x5a,0x48,0xff,0xfe,0xff,0x81,0x11,0x00,0x05,
 0x00,0x01,0x00,0xb0,0x3f,0xa2,0xaf,0xdf,0xff,0x83,0x02,0x00,0x12,0x04,0x00,
 0x00,0xb8,0x44,0xa8,0x54,0xff,0xff,0x81,0x10,0x00,0x06,0x00,0x00,0x04,0x20,
 0xa8,0xa2,0xaa,0xfa,0xff,0x03,0x03,0x00,0x89,0x20,0x00,0x00,0xba,0x12,0xa8,
 0xaa,0xee,0xff,0xc1,0x20,0x04,0x06,0x00,0x10,0x00,0xb0,0xbe,0x72,0xfd,0xbb,
 0xff,0x03,0x91,0x02,0x01,0x00,0x00,0x00,0x9c,0x4d,0xa8,0xfa,0xf5,0xff,0xd1,
 0x40,0x08,0x96,0x08,0x00,0x00,0xb8,0x2a,0x5a,0x52,0xef,0xff,0xa7,0x02,0x00,
 0x01,0x80,0x00,0x00,0x3c,0x40,0x54,0x49,0xd5,0xfe,0x17,0x00,0x00,0x0a,0x00,
 0x00,0x00,0x38,0x95,0xaa,0x54,0xeb,0xff,0x07,0x00,0x00,0x05,0x01,0x00,0x00,
 0x9c,0x08,0x5c,0xa2,0xd4,0xff,0x03,0x00,0x00,0x02,0x10,0x00,0x21,0x30,0x82,
 0x52,0x29,0x6a,0xff,0x03,0x00,0x00,0x25,0x00,0x04,0x00,0x14,0x28,0xbc,0x40,
 0xd5,0xff,0x01,0x00,0x00,0x05,0x00,0x00,0x00,0x30,0x01,0x51,0x95,0xea,0xff,
 0x03,0x00,0x00,0x02,0x81,0x00,0x00,0x08,0x24,0xaa,0x40,0xaa,0xfe,0x00,0x00,
 0x00,0x0a,0x00,0x00,0x00,0xa0,0x80,0xba,0x2b,0xf5,0xbf,0x03,0x00,0x00,0x41,
 0x08,0x00,0x00,0x00,0x6a,0xfd,0x42,0xd5,0xff,0x01,0x00,0x00,0x06,0x00,0x00,
 0x00,0x40,0x80,0xac,0x2a,0x75,0xdb,0x01,0x00,0x00,0x11,0x00,0x00,0x00,0x00,
 0x49,0x52,0x55,0xd5,0xef,0x00,0x00,0x00,0x05,0x00,0x80,0x00,0x00,0x90,0x54,
 0x2b,0xed,0xdd,0x05,0x00,0x00,0x02,0x21,0x04,0x00,0x40,0x25,0xa2,0xaa,0xea,
 0xb7,0x02,0x00,0x00,0x05,0x00,0x00,0x20,0x00,0x08,0xa9,0x56,0xd6,0x5e,0x15,
 0x00,0x00,0x22,0x00,0x00,0x00,0x80,0x54,0xf5,0x4f,0xf5,0xbf,0x02,0x00,0x00,
 0x05,0x04,0x00,0x00,0x00,0xa1,0x5a,0x95,0xaa,0x7d,0x05,0x00,0x00,0x02,0x00,
 0x00,0x00,0x00,0x94,0xa2,0x25,0xfb,0xbf,0x0a,0x00,0x00,0x42,0x00,0x01,0x00,
 0x00,0x41,0xa8,0xaa,0x6a,0xff,0x0f,0x00,0x00,0x05,0x10,0x20,0x04,0x00,0x84,
 0xaa,0x2a,0xfb,0xfd,0x02,0x00,0x00,0x02,0x01,0x00,0x00,0x00,0x22,0x25,0x95,
 0xb5,0xff,0x0f,0x00,0x00,0x09,0x00,0x00,0x00,0x00,0x08,0x94,0x54,0xff,0xef,
 0x03,0x00,0x00,0x02,0x00,0x00,0x00,0x00,0x82,0x82,0xaa,0xda,0x55,0x05,0x00,
 0x00,0x21,0x84,0x00,0x00,0x01,0x28,0x28,0xd5,0xff,0x0e,0x00,0x00,0x00,0x0a,
 0x00,0x00,0x00,0x00,0x00,0x44,0xea,0xba,0x4b,0x00,0x00,0x00,0x81,0x00,0x00,
 0x00,0x00,0x50,0x91,0xba,0x7f,0x1d,0x01,0x00,0x00,0x05,0x10,0x20,0x00,0x00,
 0x00,0xa4,0xea,0xbf,0xfe,0x5e,0x00,0x00,0x02,0x00,0x02,0x04,0x00,0xa0,0x48,
 0xfd,0xd6,0xf6,0x2d,0x00,0x00,0x21,0x01,0x00,0x00,0x00,0x00,0x52,0xff,0xaf,
 0xbe,0x5a,0x05,0x00,0x05,0x00,0x00,0x00,0x00,0x80,0xd6,0x6f,0x55,0xab,0xaa,
 0x10,0x00,0x02,0x44,0x00,0x00,0x00,0x00,0xf4,0xfa,0xab,0x5e,0xab,0x0a,0x00,
 0x11,0x00,0x00,0x40,0x00,0x00,0x89,0x96,0x54,0xad,0x2a,0xa5,0x00,0x82,0x00,
 0x00,0x00,0x00,0x00,0x44,0xd2,0xaa,0x5e,0x55,0x11,0x02,0x01,0x00,0x44,0x00,
 0x00,0x00,0x08,0x29,0x49,0x55,0x15,0xa5,0x08,0x25,0x48,0x00,0x00,0x00,0x00,
 0x45,0x54,0xa5,0xae,0xaa,0x08,0x05,0x02,0x01,0x00,0x04,0x00,0xa8,0x08,0x49,
 0x52,0x55,0x49,0x52,0x08,0x01,0x00,0x00,0x00,0x00,0x04,0x52,0x24,0x89,0xaa,
 0x94,0xa4,0x02,0x25,0x00,0x00,0x00,0x44,0xa9,0x00,0xa9,0x50,0x95,0x22,0x09,
 0x05,0x01,0x08,0x01,0x00,0x20,0x12,0x54,0x0a,0x44,0x4a,0x95,0xa4,0x00,0x42,
 0x00,0x00,0x00,0x40,0x49,0x85,0xa0,0xa8,0x2a,0x49,0x0a,0x05,0x11,0x02,0x40,
 0x00,0x10,0x24,0x2a,0x0a,0x82,0x52,0x95,0x52,0x02,0x02,0x20,0x00,0x20,0xa2,
 0x92,0x8c,0x20,0x68,0x25,0x51,0x42,0x04,0x01,0x00,0x00,0x00,0x48,0x24,0x3a,
 0x08,0xa2,0x92,0x0a,0x95,0x02,0x4a,0x00,0x02,0x00,0x22,0x11,0x19,0x21,0xa9,
 0x54,0x52,0x21,0x04,0x01,0x08,0x00,0x00,0x88,0x44,0x3c,0x04,0x54,0x92,0xa4,
 0x14,0x05,0x80,0x00,0x00,0x80,0x22,0x11,0x95,0x90,0xaa,0x64,0x92,0x42,0x02};
