#define l_width 16
#define l_height 16
static unsigned char l_bits[] = {
   0xff, 0xff, 0xff, 0xff, 0xff, 0xff, 0xff, 0xff, 0xff, 0xff, 0x01, 0x80,
   0xfd, 0xbf, 0x05, 0xbf, 0x75, 0xbf, 0x75, 0xaf, 0x35, 0x80, 0x75, 0xaf,
   0x05, 0xbf, 0xfd, 0xbf, 0x01, 0x80, 0xff, 0xff};
