#define r_width 16
#define r_height 16
static unsigned char r_bits[] = {
   0xff, 0xff, 0xff, 0xff, 0xff, 0xff, 0xff, 0xff, 0xff, 0xff, 0x01, 0x80,
   0xfd, 0xbf, 0xfd, 0xa0, 0xfd, 0xae, 0xf5, 0xae, 0x01, 0xac, 0xf5, 0xae,
   0xfd, 0xa0, 0xfd, 0xbf, 0x01, 0x80, 0xff, 0xff};
