#define turtle_rocket_width 102
#define turtle_rocket_height 66
static char turtle_rocket_bits[] = {
 0x00,0x00,0x00,0x00,0x00,0x06,0x00,0x00,0x00,0x00,0x00,0x00,0xc0,0x00,0x00,
 0x00,0x00,0x00,0x07,0x00,0x00,0x00,0x00,0x00,0x00,0xc0,0x00,0x00,0x00,0x00,
 0x80,0x04,0x00,0xdc,0x01,0x00,0x00,0x00,0xc0,0x00,0x00,0x00,0x00,0x40,0xfc,
 0xff,0xff,0xff,0xff,0x01,0x10,0xc0,0x00,0x00,0x00,0x00,0x20,0xfc,0xff,0x77,
 0xff,0xff,0x01,0x11,0xc0,0x00,0x00,0x00,0x00,0x10,0x04,0x00,0x54,0x01,0x00,
 0x01,0x33,0xc0,0x00,0x00,0x00,0x00,0x08,0xfc,0xff,0x77,0xff,0xff,0x01,0x36,
 0xc0,0x00,0x00,0x00,0x00,0x04,0x04,0x00,0x54,0x01,0x00,0x01,0x5e,0xce,0x00,
 0x00,0x00,0x00,0x02,0x04,0x00,0x54,0x01,0x00,0xff,0xea,0xc7,0x00,0x00,0x00,
 0x00,0x0f,0xfc,0xff,0x77,0xff,0xff,0xc1,0x57,0xc3,0x00,0x00,0x00,0x00,0x3e,
 0xfc,0xff,0x77,0xff,0xff,0x01,0xaa,0xce,0x00,0x00,0x00,0x00,0xfc,0xfc,0xff,
 0x77,0xff,0xff,0x01,0x55,0xff,0x00,0x00,0x00,0x00,0xf8,0xfd,0xff,0x77,0xff,
 0xff,0x81,0xab,0xc2,0x00,0x00,0x00,0x00,0xf0,0xff,0xff,0x77,0xff,0xff,0x01,
 0x56,0xc3,0x00,0x00,0x00,0x00,0xe0,0x07,0x00,0x54,0x01,0x00,0x7f,0xac,0xc7,
 0x00,0x00,0x00,0x00,0xc0,0xff,0xff,0x77,0xff,0xff,0x41,0x7c,0xc6,0x00,0x00,
 0x00,0x00,0x80,0xff,0xff,0xf7,0xff,0xff,0x7f,0x64,0xce,0x00,0x00,0x78,0x00,
 0x00,0xff,0xe7,0xf7,0xdd,0x01,0x00,0x60,0xcc,0x00,0xe0,0xff,0x00,0x80,0x0f,
 0x41,0x76,0x3d,0x03,0x00,0x60,0xc8,0x00,0x70,0x3d,0x01,0x40,0x86,0x20,0xf4,
 0xfd,0x0c,0x00,0x40,0xc0,0x00,0xe8,0x43,0x01,0x20,0xfe,0xff,0xf7,0xbd,0x19,
 0x00,0x00,0xc0,0x00,0xbc,0x47,0x03,0x10,0x43,0x20,0xb4,0xb7,0x33,0x00,0x00,
 0xc0,0x00,0x1a,0x45,0x02,0x08,0x61,0x20,0x34,0xf7,0x67,0x00,0x00,0xc0,0x00,
 0x12,0x45,0x02,0x84,0x20,0x20,0x34,0x16,0xc8,0x00,0x00,0xc0,0x00,0x66,0x47,
 0x02,0xc4,0x3f,0x20,0x34,0xfa,0x9d,0x00,0x00,0xc0,0x00,0xcf,0x63,0x04,0x42,
 0x70,0x10,0x34,0xdb,0x3d,0x01,0x00,0xc0,0xc0,0x3f,0x3b,0x04,0x22,0xd0,0xff,
 0xf7,0x0b,0x7c,0x03,0x00,0xc0,0x70,0xf0,0x45,0xc4,0x23,0x10,0x10,0x14,0xde,
 0x45,0x02,0x00,0xc0,0x1c,0x2c,0x96,0x66,0x36,0x18,0x10,0x14,0xfe,0xfe,0x06,
 0x00,0xc0,0x06,0x6c,0xae,0x14,0xfc,0x08,0x10,0x14,0x4c,0xef,0x05,0x00,0xc0,
 0x02,0xa0,0xbe,0xfc,0x18,0x0f,0x10,0x34,0x5c,0xef,0x0d,0x00,0xc0,0x09,0x14,
 0xff,0xfd,0x11,0xf8,0x13,0xa4,0x77,0xef,0x0b,0x00,0xc0,0x01,0x98,0xe1,0x2b,
 0x13,0x08,0xfc,0xe7,0x15,0xe0,0x0b,0x00,0xc0,0x01,0x80,0x10,0x4a,0x23,0x08,
 0x10,0x24,0x94,0x9f,0x19,0x00,0xc0,0x0d,0x80,0x08,0x55,0xe4,0x08,0x10,0x24,
 0xdc,0x7f,0x16,0x00,0xc0,0xff,0x80,0xc8,0x94,0x24,0xff,0x1f,0x24,0xfe,0xf9,
 0xf1,0x00,0xc0,0x80,0x80,0x04,0x92,0x48,0x18,0x18,0x2c,0x2a,0xfe,0x83,0x00,
 0xc0,0x80,0x83,0xc4,0x89,0x48,0xe8,0x3f,0x28,0x29,0xf7,0x83,0x00,0xc0,0x00,
 0x9e,0x04,0x44,0x48,0x7c,0xf0,0x2f,0x35,0xfb,0xc7,0x00,0xc0,0x00,0xf8,0x04,
 0x23,0xd0,0x34,0x60,0xef,0x35,0x0d,0x66,0x00,0xc0,0x00,0xc0,0x04,0x00,0x90,
 0x3d,0x40,0x69,0x25,0x26,0xfc,0x0f,0xc0,0x00,0x80,0x7c,0x00,0x30,0x1f,0x80,
 0xe9,0x24,0x23,0x04,0x0c,0xc0,0x00,0x80,0xd8,0xdf,0x3f,0x10,0x98,0xe9,0x24,
 0x03,0x04,0x06,0xc0,0x00,0x80,0x18,0xf0,0x67,0xf0,0x30,0x29,0x6f,0x00,0xfc,
 0x01,0xc0,0x00,0x80,0x18,0xc0,0xfe,0x67,0x20,0xea,0xf3,0x00,0x06,0x00,0xc0,
 0x00,0x80,0x0b,0x80,0x03,0x6f,0x20,0xaa,0xff,0x00,0x03,0x00,0xc0,0x00,0x00,
 0x0b,0x00,0xfc,0xf1,0x31,0xfe,0xbf,0x81,0x01,0x00,0xc0,0x00,0x00,0x0a,0x00,
 0x08,0x30,0x03,0xfe,0x3f,0x01,0x01,0x00,0xc0,0x00,0x00,0x0e,0x00,0x04,0x68,
 0x06,0x06,0x28,0x03,0x01,0x00,0xc0,0x00,0x00,0x00,0x00,0x0c,0x48,0x04,0x03,
 0x28,0x82,0x01,0x00,0xc0,0x00,0x00,0x00,0x00,0x3c,0x8c,0xc8,0x01,0x48,0xe2,
 0x00,0x00,0xc0,0x00,0x00,0x00,0x00,0x64,0x94,0xd8,0x00,0x48,0x4c,0x00,0x00,
 0xc0,0x00,0x00,0x00,0x00,0xfc,0xb4,0x78,0x00,0x7e,0x7c,0x00,0x00,0xc0,0x00,
 0x00,0x00,0x00,0xc4,0xbf,0xff,0x03,0x6e,0xfc,0x07,0x00,0xc0,0x00,0x00,0x00,
 0x00,0x3c,0x3e,0xe3,0x03,0x5a,0xec,0x07,0x00,0xc0,0x00,0x00,0x00,0x00,0xc4,
 0xff,0x7e,0x00,0x7e,0xf0,0x03,0x00,0xc0,0x00,0x00,0x00,0x00,0xe4,0x9f,0xcf,
 0x00,0xde,0x38,0x06,0x00,0xc0,0x00,0x00,0x00,0x00,0x8c,0x6f,0xa7,0x01,0x8e,
 0xd9,0x0c,0x00,0xc0,0x00,0x00,0x00,0x00,0xf8,0xef,0x76,0x01,0x6f,0xdb,0xfc,
 0xff,0xc7,0x00,0x00,0x00,0x00,0xe0,0x48,0x36,0xff,0x6f,0x3f,0xfe,0x0f,0xc0,
 0x00,0x00,0x00,0xfc,0xef,0x1f,0x8f,0xff,0x0f,0xef,0x03,0x00,0xc0,0x00,0x80,
 0xff,0xff,0xff,0xff,0xff,0xff,0x9f,0xff,0xff,0x1f,0xc0,0x00,0x00,0x00,0x00,
 0x00,0xe0,0xe7,0xff,0xff,0x03,0x00,0x00,0xc0,0x00,0x00,0x00,0x00,0x00,0xfe,
 0x0f,0xf8,0x07,0x00,0x00,0x00,0xc0,0x00,0x00,0x00,0x00,0x00,0x00,0x00,0x00,
 0xf8,0x07,0x00,0x00,0xc0,0x00,0x00,0x00,0x00,0x00,0x00,0x00,0x00,0x00,0xff,
 0x1f,0x00,0xc0};
